<?xml version="1.0" encoding="UTF-8"?>
<svg xmlns="http://www.w3.org/2000/svg" width="160" height="160" viewBox="0 0 160 160">
<path id="bg" style="fill:#f2f2f2;stroke:none" d="M 165,80 A 85,85 0 0 1 80,165 85,85 0 0 1 -5,80 85,85 0 0 1 80,-5 85,85 0 0 1 165,80 Z" />
<path id="fg" style="fill:#000000;stroke:none" d="M 80,10 A 70,70 0 0 0 10,80 70,70 0 0 0 80,150 70,70 0 0 0 150,80 70,70 0 0 0 80,10 Z m -12.195638,25.292 h 24.391791 l -2.513025,64.96296 H 70.316637 Z m 0.122473,75.075 h 24.146845 v 16.17938 H 67.926603 Z" />
</svg>
