<?xml version="1.0" encoding="UTF-8"?>
<svg xmlns="http://www.w3.org/2000/svg" width="160" height="160" viewBox="0 0 160 160">
<path id="bg" style="fill:#f2f2f2;stroke:none" d="m 80,20 v 40 h 10 c 11.04556,0 20,8.95427 20,20 0,11.04575 -8.95406,20 -20,20 H 70 v -30 L -0,120 70,170 v -30 h 20 c 33.13726,-0 60,-26.86322 60,-60 -0,-33.13705 -26.8629,-60 -60,-60 z"/>
<path id="fg" style="fill:#000000;stroke:none" d="m 90,30 v 20 c 16.568532,-0 30,13.4312 30,30 0,16.56873 -13.43151,30 -30,30 H 60 V 90 l -40,30 40,30 v -20 h 30 c 27.614272,0 50,-22.38577 50,-50 C 140,52.38546 117.61408,30 90,30 Z" />
</svg>