<?xml version="1.0" encoding="UTF-8"?>
<svg xmlns="http://www.w3.org/2000/svg" width="160" height="160" viewBox="0 0 160 160">
<path id="bg" style="fill:#f2f2f2;stroke:none" d="M 80,-5 A 85,85 0 0 0 -5,80 85,85 0 0 0 80,165 85,85 0 0 0 165,80 85,85 0 0 0 80,-5 Z m 0,80 a 5,5 0 0 1 5,5 5,5 0 0 1 -5,5 5,5 0 0 1 -5,-5 5,5 0 0 1 5,-5 z"/>
<path id="fg" style="fill:#000000;stroke:none" d="M 80,0 C 35.817169,0 0,35.817169 0,80 -0,124.18257 35.816968,160 80,160 124.18277,160 160,124.18277 160,80 160,35.816968 124.18257,-0 80,0 Z m 0,10 V 50 c 10.710224,0.01545 20.599862,5.739524 25.948282,15.01872 l 34.59841,-19.975522 c 6.1628,10.621269 9.42312,22.676844 9.45369,34.956522 -0.008,9.190947 -1.82634,18.290309 -5.35058,26.778732 L 107.70712,91.476585 c -1.01114,2.41666 -2.33446,4.69047 -3.93619,6.763412 l 31.69522,24.320483 c -13.22253,17.26605 -33.71895,27.40579 -55.466382,27.43967 V 110 C 69.289543,109.98455 59.4,104.26048 54.05148,94.981283 L 19.453593,114.95681 C 13.29071,104.33539 10.030381,92.27962 10,80 10.008026,70.809029 11.825966,61.70985 15.349967,53.221556 l 36.942965,15.30191 c 1.01114,-2.41666 2.334458,-4.69047 3.936193,-6.763412 L 24.533903,37.439576 C 37.756324,20.173665 58.252515,10.033937 80,10 Z m 0,45 C 66.192629,55 55,66.192629 55,80 55,93.806906 66.192629,105 80,105 93.806906,105 105,93.806906 105,80 105,66.192629 93.806906,55 80,55 Z m 0,15 c 5.522975,-0 10,4.47693 10,10 0,5.523177 -4.477244,10 -10,10 -5.522976,-0 -10,-4.477446 -10,-10 0,-5.522775 4.477131,-10 10,-10 z" />
</svg>