<?xml version="1.0" encoding="UTF-8"?>
<svg xmlns="http://www.w3.org/2000/svg" width="160" height="160" viewBox="0 0 160 160">
<path id="bg" style="fill:#f2f2f2;stroke:none" d="M 70,-5 14.5,50 V 165 H 145 V -5 H 70"/>
<path id="fg" style="fill:#000000;stroke:none" d="M 70,0 20,50 c 5,-5 10,-10 20,-10 H 60 V 20 c 0,-5 0,-10 10,-20 z M 80,0 70,10 v 30 c 0,-10 0,-20 10,-30 H 130 V 150 H 30 v -90 c 10,-10 20,-10 30,-10 H 30 L 20,60 v 100 H 140 V 0 Z M 70,55 v 5 H 110 V 55 Z M 50,70 v 5 H 110 v -5 z m 0,15 v 5 H 110 v -5 z m 0,15 v 5 H 110 v -5 z m 0,15 v 5 H 110 v -5 z m 0,15 v 5 H 110 v -5 z" />
</svg>