<?xml version="1.0" encoding="UTF-8"?>
<svg xmlns="http://www.w3.org/2000/svg" width="160" height="160" viewBox="0 0 160 160">
<path id="bg" style="fill:#f2f2f2;stroke:none" d="M 80,140 V 100 H 70 C 58.954113,100 50,91.04588 50,80 50,68.95458 58.953914,60 70,60 h 20 V 90 L 160,40 90,-10 v 30 h -20 c -33.137253,0 -60,26.86322 -60,60 0,33.13705 26.862906,60 60,60 z"/>
<path id="fg" style="fill:#000000;stroke:none" d="M 70,130 V 110 C 53.431229,110 40,96.56857 40,80 40,63.43131 53.431034,50 70,50 H 100 V 70 L 140,40 100,10 V 30 H 70 c -27.614273,-0 -50,22.38577 -50,50 0,27.61408 22.385973,50 50,50 z" />
</svg>