<?xml version="1.0" encoding="UTF-8"?>
<svg xmlns="http://www.w3.org/2000/svg" width="160" height="160" viewBox="0 0 160 160">
<path id="bg" style="fill:#f2f2f2;stroke:none" d="M 165,80 A 85,85 0 0 1 80,165 85,85 0 0 1 -5,80 85,85 0 0 1 80,-5 85,85 0 0 1 165,80 Z"/>
<path id="fg" style="fill:#000000;stroke:none" d="M 80,10 C 41.339944,10 10,41.339944 10,80 10,118.65979 41.33974,150 80,150 118.66,150 150,118.66 150,80 150,41.33974 118.65979,10 80,10 Z M 115,50 130,65 70,125 30,85 45,70 70,95 Z" />
</svg>