<?xml version="1.0" encoding="UTF-8"?>
<svg xmlns="http://www.w3.org/2000/svg" width="160" height="160" viewBox="0 0 160 160">
<path id="bg" style="fill:#f2f2f2;stroke:none" d="M 165,80 A 85,85 0 0 1 80,165 85,85 0 0 1 -5,80 85,85 0 0 1 80,-5 85,85 0 0 1 165,80 Z"/>
<path id="fg" style="fill:#000000;stroke:none" d="M 80,10 A 70,70 0 0 0 10,80 70,70 0 0 0 80,150 70,70 0 0 0 150,80 70,70 0 0 0 80,10 Z m 1.528587,23.4538647 c 5.147998,0 9.683089,0.612418 13.605373,1.838132 3.96314,1.184857 7.334272,2.860106 10.112562,5.025532 2.69657,2.165427 4.73916,4.719318 6.12831,7.661032 1.43,2.900854 2.14508,6.087284 2.14508,9.560139 0,4.044855 -0.61293,7.681182 -1.83864,10.908895 -1.18486,3.186856 -2.88023,5.965179 -5.08651,8.334891 -2.16543,2.328857 -4.7802,4.412729 -7.844485,6.251297 -3.023428,1.838571 -6.414686,3.51382 -10.173542,5.025535 V 102.03201 H 67.616543 V 81.501484 c 2.288,-0.612857 4.821253,-1.450223 7.599537,-2.512507 2.81914,-1.062286 5.290997,-2.369672 7.415567,-3.922241 2.247143,-1.59343 4.085944,-3.452868 5.515943,-5.577438 1.43,-2.12457 2.144572,-4.637185 2.144572,-7.538043 0,-4.044854 -1.286748,-6.986211 -3.860747,-8.824782 -2.574,-1.838571 -6.148927,-2.757972 -10.724925,-2.757972 -3.432,0 -7.088962,0.755848 -10.970389,2.267561 -3.84057,1.511716 -6.863964,3.02341 -9.07025,4.535125 H 53.8887 V 38.724252 c 2.614856,-1.144 6.434855,-2.308471 11.460282,-3.493328 5.025427,-1.184857 10.418519,-1.777153 16.179373,-1.777153 z M 66.145832,110.36691 h 24.14633 v 16.17937 h -24.14633 z" />
</svg>