<?xml version="1.0" encoding="UTF-8"?>
<svg xmlns="http://www.w3.org/2000/svg" width="160" height="160" viewBox="0 0 160 160">
<path id="bg" style="fill:#f2f2f2;stroke:none" d="M 151.15249,-11.48206 129.90254,9.76787 a 86.25,86.25 0 0 0 -110.890452,9.24376 86.25,86.25 0 0 0 -0,121.97636 86.25,86.25 0 0 0 121.976876,0 l 10.16457,-10.16456 -40.65879,-40.6588 -10.16456,10.16458 a 28.75,28.75 0 0 1 -40.659309,0 28.75,28.75 0 0 1 0,-40.6588 28.75,28.75 0 0 1 27.741266,-7.41212 l -17.576698,17.5767 106.72871,25.4122 z"/>
<path id="fg" style="fill:#000000;stroke:none" d="m 146.06993,13.92961 -15.2471,15.24711 a 71.875001,71.875001 0 0 0 -101.64565,0 71.875001,71.875001 0 0 0 -0,101.64618 71.875001,71.875001 0 0 0 101.646695,0 l -20.32913,-20.32913 a 43.125,43.125 0 0 1 -60.988437,0 43.125,43.125 0 0 1 0,-60.98792 43.125,43.125 0 0 1 60.987402,0 l -15.247121,15.24712 66.070461,15.2471 z" />
</svg>